<?xml version="1.0" encoding="UTF-8"?><svg id="Capa_2" xmlns="http://www.w3.org/2000/svg" viewBox="0 0 402.51 55"><defs><style>.cls-1{fill:#fff;}</style></defs><g id="Capa_1-2"><g><path class="cls-1" d="M42.45,35.07c-3.19,5-6.06,8.54-8.59,10.64-2.54,2.1-5.2,3.15-7.99,3.15-1.03,0-2.74-.35-5.12-1.05V5.39l5.26-.52V0H0V4.87l5.26,.52V48.33l-5.26,.52v4.87H29.57c2.52,0,4.56,.07,6.13,.22,1.57,.15,3.89,.5,6.94,1.05l3.98-18.13-4.18-1.8Z"/><path class="cls-1" d="M164.5,3.83c-3.66-2.56-8.82-3.83-15.48-3.83h-29.26V4.74l5.55,.53V48.31l-5.26,.53v4.89h26v-4.85l-5.26-.52V29.62h4.87c5.98,0,10.44-.41,13.36-1.24,2.92-.83,5.44-2.39,7.54-4.7,2.28-2.51,3.43-5.49,3.43-8.95,0-4.71-1.83-8.35-5.48-10.9Zm-19.87,20.89l-3.84-.15V5.46c2.2-.55,3.91-.82,5.12-.82,2.56,0,4.52,.9,5.86,2.7,1.35,1.8,2.02,4.35,2.02,7.64,0,6.49-3.06,9.74-9.17,9.74Z"/><path class="cls-1" d="M195.03,0h-15.82l1.41,4.42-14.35,35.74c-.63,1.6-1.2,2.9-1.72,3.9-.52,1-1.09,1.9-1.72,2.7-.63,.8-1.25,1.35-1.85,1.65-.61,.3-1.49,.45-2.66,.45v4.87h18.11v-4.84c-1.22,0-2.16-.07-2.84-.22-.68-.15-1.19-.35-1.55-.6-.77-.6-1.15-1.55-1.15-2.85,0-.65,.07-1.29,.2-1.91,.14-.62,.43-1.66,.88-3.11l.41-.97h19.25l2.84,8.76-5.47,.9v4.86h25.12v-4.87l-3.71-.82L195.03,0Zm-20.77,33.69l8.75-21.79,6.94,21.79h-15.69Z"/><path class="cls-1" d="M254.71,0h-46.48l-2.88,16.19,4.11,1.42c1.28-2.5,2.32-4.37,3.12-5.62,.8-1.25,1.72-2.42,2.77-3.52,1.42-1.55,2.67-2.56,3.77-3.03,1.1-.47,2.74-.71,4.93-.71V48.33l-5.55,.52v4.87h26.29v-4.87l-5.26-.52V4.72c2.15,0,3.8,.26,4.96,.79,1.16,.52,2.33,1.51,3.52,2.96,1.01,1.1,1.88,2.27,2.63,3.52,.74,1.25,1.71,3.12,2.89,5.62l4.01-1.42L254.71,0Z"/><path class="cls-1" d="M295.97,26.56c2.2-.35,3.88-.77,5.05-1.27,1.17-.5,2.29-1.32,3.37-2.47,2.43-2.39,3.64-5.39,3.64-8.98,0-4.54-1.8-7.98-5.39-10.32C299.04,1.17,293.76,0,286.8,0h-28.3V4.64l5.26,.52V48.31l-5.26,.53v4.89h26v-4.87l-5.26-.53V28.75h2.73l9.76,24.98h20.8v-4.88l-4.92-.53-11.66-21.76Zm-5.67-5.89c-.76,1.2-1.71,2.02-2.83,2.47-1.12,.45-2.81,.67-5.06,.67h-3.17V4.87l4.79-.17c2.56,0,4.52,.85,5.86,2.55,1.35,1.7,2.02,4.1,2.02,7.19,0,2.35-.54,4.42-1.62,6.22Z"/><polygon class="cls-1" points="316.63 4.87 321.89 5.4 321.89 46.08 321.89 48.33 316.63 48.86 316.63 53.73 342.63 53.73 342.63 48.86 337.37 48.33 337.37 5.4 342.63 4.87 342.63 0 316.63 0 316.63 4.87"/><path class="cls-1" d="M82.57,0h-15.82l1.41,4.42-14.35,35.74c-.63,1.6-1.2,2.9-1.72,3.9-.52,1-1.09,1.9-1.72,2.7-.63,.8-1.25,1.35-1.85,1.65-.61,.3-1.49,.45-2.66,.45v4.87h18.11v-4.84c-1.22,0-2.16-.07-2.84-.22-.68-.15-1.19-.35-1.55-.6-.77-.6-1.15-1.55-1.15-2.85,0-.65,.07-1.29,.2-1.91,.14-.62,.43-1.66,.88-3.11l.41-.97h19.25l2.84,8.76-5.47,.9v4.86h25.12v-4.87l-3.71-.82L82.57,0Zm-20.88,33.69l8.75-21.79,6.94,21.79h-15.69Z"/><path class="cls-1" d="M398.8,48.03L383.43,0h-15.82l1.41,4.42-14.35,35.74c-.63,1.6-1.2,2.9-1.72,3.9-.52,1-1.09,1.9-1.72,2.7-.63,.8-1.25,1.35-1.85,1.65-.61,.3-1.49,.45-2.66,.45v4.87h18.11v-4.84c-1.22,0-2.16-.07-2.84-.22-.68-.15-1.19-.35-1.55-.6-.77-.6-1.15-1.55-1.15-2.85,0-.65,.07-1.29,.2-1.91,.14-.62,.43-1.66,.88-3.11l.41-.97h19.25l2.84,8.76-5.47,.9v4.86h25.12v-4.87l-3.71-.82Zm-36.13-14.34l8.75-21.79,6.94,21.79h-15.69Z"/></g></g></svg>