<svg xmlns="http://www.w3.org/2000/svg" width="106.069" height="25.081" viewBox="0 0 106.069 25.081">
  <g id="Logo_Matelsa" data-name="Logo Matelsa" transform="translate(0 0)">
    <path id="Trazado_332" data-name="Trazado 332" d="M19.907,22a6.76,6.76,0,0,1-2.616,2.263,10,10,0,0,1-3.415.779,6.331,6.331,0,0,1-.656.04,1.617,1.617,0,0,1-1.127-.323,1.075,1.075,0,0,1-.294-.74c-.044-.992.995-1.055,1.754-1.1h.005c.188-.011.365-.022.51-.044a9.69,9.69,0,0,0,2.133-.6l.024-.01a4.277,4.277,0,0,0,1.27-6.977,6.634,6.634,0,0,0-1.068-.783,5.367,5.367,0,0,1-1.271-1,2.8,2.8,0,0,1-.656-1.246A4.454,4.454,0,0,1,14.411,11,15.543,15.543,0,0,1,14.8,8.771l.045-.2c.077-.342.128-.663.187-1.048.079-.51.18-1.013.269-1.438q.055-.264.112-.528l0-.022c.08-.374.157-.74.23-1.11.012-.064.026-.128.04-.193l0-.016a5.412,5.412,0,0,0,.112-.672c0-.019,0-.04.007-.063l0-.016a.9.9,0,0,0-.124-.727.645.645,0,0,0-.234-.173.831.831,0,0,0-.34-.08c-.293,0-.552.188-.792.572A20.177,20.177,0,0,0,12.948,5.8l-.008.018q-.076.184-.151.369c-.288.72-.558,1.459-.8,2.2-.087.262-.166.529-.243.787V9.18c-.136.46-.265.9-.439,1.325l-.019.048A5.761,5.761,0,0,1,9.936,12.81a2.2,2.2,0,0,1-1.875.492,2.131,2.131,0,0,1-1.382-1.5,3.7,3.7,0,0,1-.127-.538c-.057-.327-.1-.677-.141-1.07a36.444,36.444,0,0,1-.1-3.713V6.345q0-.394.006-.786V5.5c0-.33.006-.739.008-1.131,0-.049,0-.105.006-.149V4.193A1.532,1.532,0,0,0,6.2,3.3a.7.7,0,0,0-.587-.327H5.6C4.892,2.98,4.62,4.032,4.44,4.728c-.035.136-.071.276-.106.385a48.713,48.713,0,0,0-1.932,7.5h0l-.007.066c-.035.286-.065.572-.093.847l-.021.206c-.231,2.365-.323,4.47.907,6.292A5.847,5.847,0,0,0,5.8,22.287a7.827,7.827,0,0,0,2.083.629,1.344,1.344,0,0,1,.836.318,1.075,1.075,0,0,1,.294.74,1.091,1.091,0,0,1-1.045,1.05c-.054,0-.115,0-.181,0a6.106,6.106,0,0,1-1.877-.36A8.49,8.49,0,0,1,1.48,21.415a8.784,8.784,0,0,1-1.475-5.31c.024-.712.089-1.559.191-2.517a25.667,25.667,0,0,1,.412-2.753c.189-.866.43-1.732.643-2.5.192-.688.373-1.383.547-2.055l.1-.4A20.72,20.72,0,0,1,2.592,3.75c.082-.216.158-.45.226-.657A5.059,5.059,0,0,1,3.744,1.2,2.864,2.864,0,0,1,5.719.29,2.307,2.307,0,0,1,7.428.922a2.642,2.642,0,0,1,.815,1.537A17.327,17.327,0,0,1,8.421,5.57c0,.494-.01,1.053-.009,1.6,0,.25-.006.511-.012.763V7.99a9.291,9.291,0,0,0,.2,2.741.3.3,0,0,0,.1.172.212.212,0,0,0,.259-.045.616.616,0,0,0,.128-.252c.129-.4.256-.8.368-1.153v0c.236-.747.481-1.52.747-2.271.307-.863.665-1.768,1.066-2.689.065-.148.128-.3.2-.461l0-.008c.609-1.432,1.24-2.912,2.644-3.668a2.723,2.723,0,0,1,2.5-.085c1.879,1,1.321,3.561.952,5.253l-.065.3-.056.265c-.176.825-.332,1.667-.482,2.481l-.005.027c-.117.635-.223,1.208-.338,1.783a2.056,2.056,0,0,0,.922,2.121c.184.157.377.312.564.462A11.976,11.976,0,0,1,19.291,14a6.658,6.658,0,0,1,1.589,3.111A6.941,6.941,0,0,1,19.907,22" transform="translate(0 0)" fill="#484848"/>
    <path id="Trazado_333" data-name="Trazado 333" d="M104.653,165.485a1.8,1.8,0,0,1-1.756,1.789.219.219,0,0,1-.035,0,1.7,1.7,0,0,1-1.705-1.709,1.8,1.8,0,0,1,1.756-1.789h.034a1.7,1.7,0,0,1,1.707,1.709" transform="translate(-91.424 -148.019)" fill="#484848"/>
    <path id="Trazado_334" data-name="Trazado 334" d="M306.287,69.469l-.071.163.06-.166a2.5,2.5,0,0,0-1.945.038,4.207,4.207,0,0,0-.547.24c-.226.123-.447.269-.7.435-.22.145-.468.31-.729.457a2.586,2.586,0,0,0-.266.2,2.842,2.842,0,0,1-.8.507,1.7,1.7,0,0,1-1.362-.12c-.187-.091-.485-.279-.725-.43l-.251-.157a3.761,3.761,0,0,0-3.064-.165,2.536,2.536,0,0,0-1.626,1.315,16.1,16.1,0,0,0-.913,3.252l-.058.376a32.629,32.629,0,0,0-.418,3.539c-.009.279-.033.549-.058.836a4.452,4.452,0,0,0,.114,2.055.871.871,0,0,0,1.244.328,2.638,2.638,0,0,0,.479-1.045c.134-.444.365-1.716.588-2.944l.029-.158c.081-.443.158-.867.23-1.248a9.312,9.312,0,0,1,.622-2.311,1.7,1.7,0,0,1,1.195-.87,1.613,1.613,0,0,1,1.453.306,2.444,2.444,0,0,1,.589,2.05l-.009.168a21.979,21.979,0,0,1-.2,2.2c-.084.625-.14,1.136-.174,1.61l-.008.1a3.477,3.477,0,0,0,.1,1.5.794.794,0,0,0,.369.426.757.757,0,0,0,.6.037,1.849,1.849,0,0,0,.866-.981,28.216,28.216,0,0,0,.775-3.514,24.65,24.65,0,0,1,.728-3.028,3.851,3.851,0,0,1,1.021-1.971,2.155,2.155,0,0,1,1-.544,1.282,1.282,0,0,1,.266-.028,1.216,1.216,0,0,1,.863.356,2,2,0,0,1,.528,1.21,11.667,11.667,0,0,1-.174,3.333c-.223,1.462-.513,2.942-.794,4.372l-.184.941a1.233,1.233,0,0,0,.515,1.447.712.712,0,0,0,.336.086.9.9,0,0,0,.733-.479,5.919,5.919,0,0,0,.667-2.031l.085-.422a36.9,36.9,0,0,0,.643-5.7l.02-.456c.089-2.02.19-4.31-1.653-5.123" transform="translate(-264.59 -62.621)" fill="#484848"/>
    <path id="Trazado_335" data-name="Trazado 335" d="M469.4,84.423a2.416,2.416,0,0,0-.475-.242,4.381,4.381,0,0,0-1.695-.194,6.61,6.61,0,0,0-2.348.37l-.133.063a4.22,4.22,0,0,0-.713.386,6.661,6.661,0,0,0-1.693,1.994,5,5,0,0,0-.641,2.7,3.028,3.028,0,0,0,.265,1.254,2.5,2.5,0,0,0,1.965,1.306,3.764,3.764,0,0,0,1.751-.23c.138-.05.282-.112.429-.175.479-.205.992-.423,1.378-.22a.989.989,0,0,1,.461.813,4.393,4.393,0,0,1-.027.917c-.02.2-.038.384-.039.572a1.429,1.429,0,0,0,.549,1.231.99.99,0,0,0,.48.149.586.586,0,0,0,.174-.025,1.1,1.1,0,0,0,.593-.624,7.958,7.958,0,0,0,.5-2.223c.169-1.249.275-2.1.333-3.316.009-.183.02-.372.035-.6l.009-.149c.086-1.345.184-2.868-1.155-3.75m-5.06,4.878a1.812,1.812,0,0,1,.026-1.789,2.606,2.606,0,0,1,2.233-1.274h.028a1.665,1.665,0,0,1,1.187.429,1.013,1.013,0,0,1,.274.787A2.5,2.5,0,0,1,467.248,89a3.115,3.115,0,0,1-.259.213,2.792,2.792,0,0,1-.535.3,2.9,2.9,0,0,1-.371.135,2.416,2.416,0,0,1-.71.1,1.213,1.213,0,0,1-1.037-.459" transform="translate(-417.274 -75.9)" fill="#484848"/>
    <path id="Trazado_336" data-name="Trazado 336" d="M1017.642,89.965a2.386,2.386,0,0,0-.475-.242,4.411,4.411,0,0,0-1.7-.194,6.6,6.6,0,0,0-2.347.37l-.134.063a4.222,4.222,0,0,0-.713.386,6.667,6.667,0,0,0-1.693,1.994,5,5,0,0,0-.641,2.7,3.029,3.029,0,0,0,.265,1.254,2.5,2.5,0,0,0,1.965,1.306,3.761,3.761,0,0,0,1.751-.23c.138-.05.282-.112.429-.175.48-.206.992-.426,1.379-.22a.99.99,0,0,1,.46.813,4.274,4.274,0,0,1-.026.9c-.02.2-.039.394-.04.587a1.428,1.428,0,0,0,.549,1.231.99.99,0,0,0,.48.149.582.582,0,0,0,.173-.025,1.086,1.086,0,0,0,.594-.624,7.967,7.967,0,0,0,.5-2.223c.169-1.249.275-2.1.333-3.316.007-.146.016-.3.025-.45l.02-.3c.086-1.345.184-2.868-1.155-3.75m-5.06,4.878a1.812,1.812,0,0,1,.026-1.789,2.606,2.606,0,0,1,2.233-1.274h.028a1.663,1.663,0,0,1,1.187.429,1.013,1.013,0,0,1,.274.787h0a2.5,2.5,0,0,1-.834,1.552,3.114,3.114,0,0,1-.259.213,2.831,2.831,0,0,1-.536.3,2.865,2.865,0,0,1-.371.135,2.55,2.55,0,0,1-.692.1h-.018a1.213,1.213,0,0,1-1.037-.459" transform="translate(-912.771 -80.909)" fill="#484848"/>
    <path id="Trazado_337" data-name="Trazado 337" d="M571.359,68l-.181-.021c-.132-.013-.273-.021-.419-.029l-.064,0a3.724,3.724,0,0,1-1.7-.36c-.322-.2-.261-.514-.121-1.068a6.653,6.653,0,0,0,.157-.765,4.811,4.811,0,0,1,.1-.5c.128-.532.26-1.082-.154-1.459a1.132,1.132,0,0,0-1.167-.248c-.435.176-.612,1.022-.744,1.8-.016.1-.031.186-.045.257-.037.186-.06.37-.087.584-.1.812-.182,1.443-1.339,1.392-.4-.022-.852-.084-1.344-.151a13.547,13.547,0,0,0-1.731-.171,1.632,1.632,0,0,0-.739.137.743.743,0,0,0-.386.485.987.987,0,0,0,.145.78,2.349,2.349,0,0,0,1.869.754l.045,0c.147.015.292.023.434.03l.057,0a2.957,2.957,0,0,1,1.419.313c.945.525.756,1.649.59,2.641l-.041.25c-.064.4-.134.8-.2,1.2-.168.962-.342,1.956-.428,2.951a.959.959,0,0,0,.909,1.228.708.708,0,0,0,.546-.259,3.941,3.941,0,0,0,.659-1.941c.016-.1.031-.2.047-.293.029-.17.058-.338.09-.5.216-1.121.391-2.267.52-3.406.067-.588.168-1.479,1-1.684a3.953,3.953,0,0,1,1.206-.041,4.619,4.619,0,0,0,1,0,1.119,1.119,0,0,0,.778-.554A.881.881,0,0,0,572,68.274a.992.992,0,0,0-.637-.278" transform="translate(-507.356 -57.369)" fill="#484848"/>
    <path id="Trazado_338" data-name="Trazado 338" d="M687.657,68l-.182-.021c-.131-.013-.272-.02-.416-.028l-.066,0a3.726,3.726,0,0,1-1.7-.36c-.322-.2-.261-.514-.121-1.068a6.652,6.652,0,0,0,.157-.765,4.812,4.812,0,0,1,.1-.5c.128-.532.261-1.081-.154-1.459a1.131,1.131,0,0,0-1.166-.248c-.436.176-.613,1.022-.745,1.8-.016.1-.031.186-.045.258-.038.2-.062.394-.085.584-.1.811-.177,1.439-1.34,1.391-.4-.022-.854-.084-1.344-.151a13.547,13.547,0,0,0-1.731-.171,1.635,1.635,0,0,0-.739.137.747.747,0,0,0-.385.484.981.981,0,0,0,.145.781,2.348,2.348,0,0,0,1.868.754l.045,0c.148.015.293.023.435.03l.057,0a2.96,2.96,0,0,1,1.42.313c.945.525.756,1.65.589,2.642l-.041.249c-.065.4-.135.806-.205,1.209-.168.958-.341,1.95-.427,2.942a.959.959,0,0,0,.909,1.228.708.708,0,0,0,.546-.259,3.942,3.942,0,0,0,.659-1.941c.016-.1.031-.2.047-.293.029-.17.058-.338.09-.5.216-1.119.39-2.265.52-3.406.067-.589.168-1.479,1-1.684a3.914,3.914,0,0,1,1.206-.041,4.4,4.4,0,0,0,1,0,1.116,1.116,0,0,0,.778-.554.882.882,0,0,0-.042-1.078.989.989,0,0,0-.636-.278" transform="translate(-612.465 -57.369)" fill="#484848"/>
    <path id="Trazado_339" data-name="Trazado 339" d="M798.2,93.493a2.363,2.363,0,0,1,.494-.1,2.825,2.825,0,0,0,.54-.1,7.663,7.663,0,0,0,3-1.76,2.557,2.557,0,0,0,.551-3.425,2.6,2.6,0,0,0-.72-.66,3.608,3.608,0,0,0-1.928-.46,3.757,3.757,0,0,0-1.568.317c-2.481,1.137-3.191,4.262-3.029,6.809a4.088,4.088,0,0,0,1.474,3.3,3.2,3.2,0,0,0,1.82.543,3.605,3.605,0,0,0,2.208-.753,4.356,4.356,0,0,0,1.047-1.091l.132-.191c.189-.268.476-.672.321-1.048a.78.78,0,0,0-1.018-.341,2.681,2.681,0,0,0-.875.618,3.415,3.415,0,0,1-.525.43,1.484,1.484,0,0,1-1.645.045,1.658,1.658,0,0,1-.588-1.446c.011-.175.064-.593.31-.684m1.246-2.287-.1-.156a1.089,1.089,0,0,1-.647.012.551.551,0,0,1-.36-.4,1.142,1.142,0,0,1-.024-.407,1.612,1.612,0,0,1,.7-1.086,1.567,1.567,0,0,1,1.658-.155.708.708,0,0,1,.348.454.824.824,0,0,1-.168.64,2.976,2.976,0,0,1-1.459.927Z" transform="translate(-718.979 -78.617)" fill="#484848"/>
    <path id="Trazado_340" data-name="Trazado 340" d="M886.707,58.213a.792.792,0,0,0-.4-.487.651.651,0,0,0-.156-.05h0a.85.85,0,0,0-.77.309,2.039,2.039,0,0,0-.359.8,35.184,35.184,0,0,0-.84,4.065c-.147.942-.33,2.115-.576,3.472-.318,1.917-.574,3.463-.762,4.623-.02.12-.042.245-.064.371a5.9,5.9,0,0,0-.11,2.3.719.719,0,0,0,.526.522.966.966,0,0,0,.917-.232,3.875,3.875,0,0,0,.863-2.142c.057-.355.137-.72.215-1.071.062-.282.124-.565.176-.848.186-1.009.333-2.041.475-3.039.049-.344.1-.686.148-1.029.077-.521.141-1.014.19-1.468.045-.411.1-.82.154-1.228.066-.494.133-.987.181-1.483.028-.282.062-.566.1-.849a16.082,16.082,0,0,0,.159-1.985,1.8,1.8,0,0,0-.065-.551" transform="translate(-797.675 -52.118)" fill="#484848"/>
    <path id="Trazado_341" data-name="Trazado 341" d="M933.066,80.589a2.166,2.166,0,0,0-1.645-.629,5.163,5.163,0,0,0-3.177.787c-1.136.791-1.457,2.286-.858,4a8.988,8.988,0,0,0,.979,1.941l.085.126c.229.34.445.661.633.968a3.017,3.017,0,0,1,.509,1.535c-.017.625-.148.954-.454,1.135a1.436,1.436,0,0,1-.939.165,3.537,3.537,0,0,1-1.09-.392c-.063-.032-.121-.06-.181-.089l-.071-.033c-.408-.194-1.166-.555-1.638-.318a.665.665,0,0,0-.348.5,1,1,0,0,0,.157.721,1.922,1.922,0,0,0,.475.488,6.634,6.634,0,0,0,1.331.8,4.515,4.515,0,0,0,1.741.358,3.917,3.917,0,0,0,.691-.06,3.176,3.176,0,0,0,2.087-1.445,3.6,3.6,0,0,0,.411-2.45,7.752,7.752,0,0,0-1.158-2.479l-.03-.047c-.182-.283-.368-.572-.543-.868l-.082-.135c-.347-.566-1.069-1.743-.355-2.591a2.235,2.235,0,0,1,1.854-.507l.417,0c.517.006,1.057.021,1.264-.556a1.172,1.172,0,0,0-.067-.925" transform="translate(-835.874 -72.268)" fill="#484848"/>
  </g>
</svg>
