<?xml version="1.0" encoding="utf-8"?><svg xmlns="http://www.w3.org/2000/svg" viewBox="0 0 192 48"><path d="M60 37.3c1 .6 1.7 1.7 1.8 2.9h-1.3c-.1-.7-.5-1.3-1-1.7-.6-.4-1.3-.6-1.9-.5-.9 0-1.8.4-2.4 1.1-.7.9-1 2.1-1 3.2-.1 1.1.2 2.1.8 3 .6.8 1.5 1.3 2.5 1.2.8 0 1.6-.3 2.3-.8.7-.7 1-1.7.9-2.7h-3.2v-1.2H62v5.8h-.9l-.3-1.6c-.4.4-.8.8-1.3 1.1-.7.4-1.5.6-2.3.5-1.1 0-2.3-.4-3.1-1.2-1-1.1-1.5-2.6-1.4-4.1-.1-1.5.4-3 1.4-4.2.9-1 2.1-1.5 3.4-1.5.9.1 1.7.3 2.5.7zm-32.2 3.2c.3.4.5.9.5 1.4h-1.2c0-.3-.1-.6-.3-.8-.4-.4-1-.6-1.6-.5-.4 0-.8.1-1.2.3-.3.2-.4.4-.4.7 0 .3.2.7.5.8.3.2.6.3.9.3l.9.2c.7.1 1.3.3 1.9.7.5.3.8.9.8 1.6 0 .7-.3 1.3-.8 1.8-.7.6-1.6.8-2.5.8-.9.1-1.8-.2-2.5-.8-.5-.5-.8-1.2-.8-1.9h1.2c0 .4.1.7.3 1 .5.5 1.1.7 1.8.6.5 0 .9-.1 1.3-.3.4-.2.6-.6.6-1 0-.3-.2-.7-.5-.8-.4-.2-.8-.3-1.1-.4l-1.1-.3c-.5-.1-1-.3-1.5-.6s-.9-.8-.9-1.4c0-.7.3-1.3.8-1.8.6-.5 1.4-.7 2.2-.7 1.1-.1 2.1.3 2.7 1.1zm117.5-1c.9 0 1.8.3 2.4 1 .7.8 1.1 1.9 1 2.9 0 1.1-.3 2.2-.9 3.1-.6.8-1.6 1.3-2.7 1.2-.9 0-1.8-.4-2.4-1.1-.6-.8-1-1.9-.9-2.9-.1-1.1.3-2.2 1-3.1.5-.7 1.5-1.2 2.5-1.1zm-26.4 0c.9 0 1.8.3 2.4 1 .7.8 1.1 1.9 1 2.9 0 1.1-.3 2.2-.9 3.1-.6.8-1.6 1.3-2.7 1.2-.9 0-1.8-.4-2.4-1.1-.6-.8-1-1.9-.9-2.9-.1-1.1.3-2.2 1-3.1.6-.8 1.5-1.2 2.5-1.1zM70 39.4c.9 0 1.8.4 2.4 1 .7.8 1.1 1.9 1 2.9 0 1.1-.3 2.2-.9 3.1-.6.8-1.6 1.3-2.7 1.2-.9 0-1.8-.4-2.4-1.1-.6-.8-1-1.9-.9-2.9-.1-1.1.3-2.2 1-3.1.6-.7 1.5-1.1 2.5-1.1zm-21.7-2.7v11h-1.2v-1.2c-.2.3-.4.5-.7.7-.4.3-.9.4-1.4.4-1 0-1.9-.4-2.4-1.2-.6-.9-.9-2-.9-3.1-.1-1.1.2-2.1.9-2.9.6-.7 1.4-1 2.3-1 .4 0 .9.1 1.3.3.4.2.7.5 1 .9v-3.9h1.1zm60.9 2.7v1.5c.3-.4.7-.7 1.1-1 .4-.2.9-.3 1.3-.3.9-.1 1.7.4 2.2 1.1.2.6.3 1.2.3 1.8v5.1h-1.3v-5c0-.4-.1-.8-.2-1.1-.2-.5-.7-.8-1.2-.7-.2 0-.5 0-.7.1-.4.1-.7.3-.9.6-.2.2-.3.5-.4.8-.1.3-.1.6-.1.9v4.5H108v-8.2h1.2zm-17.4-2.7V46c0 .2.1.4.3.5h.3v1.1H92c-.5.1-.9-.1-1.2-.5-.2-.4-.3-.8-.3-1.2v-9.3h1.3zm-26.6 0V46c0 .2.1.4.3.5h.3v1.1h-.3c-.5.1-.9-.1-1.2-.5-.2-.4-.3-.8-.3-1.2v-9.3h1.2zm36.2 2.7v1.5c.3-.4.7-.7 1.1-1 .4-.2.9-.3 1.3-.3.9-.1 1.7.3 2.2 1.1.2.6.3 1.2.3 1.8v5.1H105v-5c0-.4-.1-.8-.2-1.1-.2-.5-.7-.8-1.2-.7-.2 0-.5 0-.7.1-.4.1-.7.3-.9.6-.2.2-.3.5-.4.8-.1.3-.1.6-.1.9v4.5h-1.3v-8.2h1.2zm49.8.1V41c.2-.4.4-.7.7-.9.4-.4.8-.6 1.3-.6h.4v1.3h-.4c-.6 0-1.1.2-1.5.6-.3.5-.5 1.1-.5 1.7v4.6h-1.3v-8.2h1.3zM76 36.7v3.8c.3-.4.6-.7 1-.9.4-.2.8-.3 1.3-.3.9 0 1.7.3 2.3 1 .6.8.9 1.9.9 2.9 0 1.1-.3 2.2-.9 3.1-.5.8-1.4 1.3-2.4 1.2-.5 0-1-.1-1.4-.4-.3-.2-.5-.5-.7-.7v1.2h-1.2V36.7H76zm59.7 3.3c.6.4.9 1 .8 1.6v4.5c0 .1 0 .2.1.3.1.1.2.1.3.1h.4v.9c-.1 0-.3.1-.5.1h-.4c-.4 0-.7-.2-.9-.5-.1-.2-.2-.5-.2-.7-.3.4-.7.7-1.1.9-.5.3-1 .4-1.6.4-.6 0-1.3-.2-1.7-.7-.4-.4-.7-1-.7-1.6 0-.6.2-1.2.7-1.7.5-.4 1.1-.7 1.7-.7l1.9-.2c.2 0 .5-.2.6-.4.1-.2.1-.3.1-.5 0-.4-.1-.8-.5-1-.4-.2-.9-.3-1.3-.3-.5 0-1 .2-1.3.6-.2.3-.3.6-.3.9h-1.2c-.1-.8.3-1.5.9-2 .6-.4 1.3-.6 2-.6.8 0 1.6.2 2.2.6zM9.2 36.8v1.3H5.6v9.6H4.1v-9.6H.5v-1.3h8.7zm89.1-.1v10.9H97V36.7h1.3zM87.8 40c.5.4.9 1 .8 1.6v4.5c0 .1 0 .2.1.3.1.1.2.1.3.1h.4v.9c-.2.1-.3.1-.5.1h-.4c-.4 0-.7-.2-.9-.5-.1-.2-.2-.5-.2-.7-.3.4-.7.7-1.1.9-.5.3-1 .4-1.6.4-.6 0-1.3-.2-1.7-.7-.4-.4-.7-1-.7-1.6 0-.6.2-1.2.7-1.7.5-.4 1.1-.7 1.7-.7l2-.2c.2 0 .5-.1.6-.4.1-.2.1-.3.1-.5 0-.4-.1-.8-.5-1-.4-.2-.9-.3-1.3-.3-.5-.1-1 .2-1.4.6-.2.3-.3.6-.3.9h-1.2c-.1-.8.3-1.5.9-2 .6-.4 1.3-.6 2-.6.8 0 1.5.2 2.2.6zm-77.1-.6v1.5c.2-.4.4-.7.7-.9.4-.4.8-.5 1.3-.5h.4v1.3h-.4c-.6 0-1.1.2-1.5.6-.3.5-.5 1.1-.6 1.7v4.6H9.5v-8.2h1.2zm113.4 0l2.2 6.7 2.3-6.7h1.5l-3.1 8.2h-1.3l-3-8.2h1.4zm-103.3 0v8h-1.3v-1.2c-.2.3-.4.6-.6.8-.5.4-1.1.6-1.8.6-.9.1-1.8-.3-2.2-1.1-.2-.5-.4-1.1-.3-1.6v-5.4H16v5.3c0 .3 0 .7.2 1 .2.5.7.8 1.3.7.8.1 1.6-.5 1.8-1.3.2-.6.3-1.2.3-1.8v-4h1.2zm119-2.7v2.7h1.2v1h-1.2v5.5c0 .2.1.4.3.5.2.1.3.1.5.1h.4v1c-.1 0-.3.1-.5.1h-.5c-.4 0-.9-.1-1.2-.5-.2-.3-.3-.7-.3-1v-5.7h-1v-1h1v-2.7h1.3zm-108.3 0v2.7h1.2v1h-1.2v5.5c0 .2.1.4.3.5.2.1.3.1.5.1h.4v1c-.1 0-.3.1-.5.1h-.5c-.5.1-.9-.1-1.2-.5-.2-.4-.3-.8-.3-1.2v-5.6h-1v-1h1v-2.7h1.3zm5.8 2.7c.6 0 1.1.1 1.6.4.5.2.9.6 1.2 1 .3.4.4.9.5 1.3.1.6.1 1.1.1 1.7H35c0 .7.2 1.4.6 2 .4.5 1 .7 1.6.7.6 0 1.2-.2 1.6-.7.2-.3.4-.6.5-.9h1.3c-.1.3-.2.7-.3 1-.2.3-.4.6-.7.9-.4.4-.9.7-1.5.8-.4.1-.7.1-1.1.1-.9 0-1.8-.4-2.5-1.1-.7-.8-1.1-1.9-1-3-.1-1.1.3-2.2 1-3 .7-.8 1.7-1.2 2.8-1.2zm98 4.1l-.6.3c-.2.1-.5.1-.7.1l-.8.1c-.4 0-.7.1-1 .3-.4.2-.6.6-.6 1.1 0 .3.1.7.4.9.3.2.6.3 1 .3s.9-.1 1.3-.3c.7-.3 1.1-1 1.1-1.8v-1zm-48 0l-.6.3c-.2.1-.5.1-.7.1l-.8.1c-.4 0-.7.1-1 .3-.4.2-.6.6-.6 1.1 0 .3.1.7.4.9.3.2.6.3 1 .3s.9-.1 1.3-.3c.7-.3 1.1-1 1-1.8v-1zm57.9-2.9c-.7 0-1.3.3-1.7.9-.4.7-.5 1.4-.5 2.2 0 .7.2 1.4.5 2.1.4.6 1 .9 1.7.8.7.1 1.4-.3 1.7-1 .3-.7.5-1.4.5-2.2 0-.6-.1-1.2-.3-1.8-.4-.6-1.1-1.1-1.9-1zm-75.2 0c-.7 0-1.3.3-1.7.9-.4.7-.5 1.4-.5 2.2 0 .7.2 1.4.5 2 .4.6 1 .9 1.7.8.7.1 1.4-.3 1.7-1 .3-.7.5-1.4.5-2.2 0-.6-.1-1.2-.3-1.8-.4-.5-1.2-1-1.9-.9zm48.8 0c-.7 0-1.3.3-1.7.9-.4.7-.5 1.4-.5 2.2 0 .7.2 1.4.5 2 .4.6 1 .9 1.7.8.7.1 1.4-.3 1.7-1 .3-.7.5-1.4.5-2.2 0-.6-.1-1.2-.3-1.8-.4-.5-1.1-1-1.9-.9zm-73.8.1c-.6 0-1.2.3-1.5.8-.4.6-.5 1.3-.5 2 0 .8.1 1.5.5 2.2.3.5.9.9 1.5.8.8.1 1.6-.4 1.9-1.2.2-.6.3-1.2.3-1.8.1-.8-.2-1.6-.7-2.2-.4-.4-.9-.6-1.5-.6zm33.1-.1c-.6 0-1.1.2-1.5.7-.5.6-.7 1.4-.7 2.2 0 .6.1 1.2.3 1.8.3.8 1 1.3 1.9 1.3.6 0 1.2-.3 1.5-.8.4-.7.5-1.5.5-2.2 0-.7-.2-1.4-.5-2-.3-.7-.9-1-1.5-1zm-40.9 0c-.6 0-1.1.2-1.5.7-.4.4-.7 1-.7 1.7h4.4c0-.5-.2-.9-.4-1.3-.4-.8-1.1-1.2-1.8-1.1zM6 .5c2.7 0 4.1 1.3 5.3 3.1 1 1.6 9.3 17.7 9.4 18 .1.2.3.4.5.3.2-.1.2-.3.2-.7 0-.3-.1-2.2-.1-3.4V.8h6.1v20.4c0 6.1-3 7.2-5.5 7.2-2.7 0-4.1-1.3-5.3-3.1-1.7-2.6-9.3-17.7-9.4-18-.2-.3-.4-.4-.6-.3-.2.1-.2.3-.2.7s.1 2.1.1 3.3v17H.4V7.6c0-6 3-7.1 5.6-7.1zm159.1.3v5.7h-8.8V28h-6.2V6.5h-8.7V.8h23.7zM78.8.8v5.7H70V28h-6.2V6.5h-8.7V.8h23.7zm104 0c6.5 0 8.8 2.5 8.8 9.4V28h-18.4c-4.9 0-7.4-2.2-7.4-7.8v-1.3c0-5.4 2.4-7.8 7.2-7.8h12.6v-1c0-2.6-.9-3.6-3.1-3.6h-15.2V.8h15.5zm-51.5 0c6.5 0 8.8 2.5 8.8 9.4V28h-18.4c-4.9 0-7.4-2.2-7.4-7.8v-1.3c0-5.4 2.4-7.8 7.2-7.8H134v-1c0-2.6-.9-3.6-3.1-3.6h-15.2V.8h15.6zM53.1.8v5.7h-8.7V28h-6.2V6.5h-8.7V.8h23.6zm49.8 0c6.2 0 9 2.4 9 9.6v8.2c0 6.3-2.1 9.5-8.7 9.5H86.3V.8h16.6zm-.4 5.8h-10v15.6h10c2.2 0 3.1-1 3.1-3.6v-8.4c0-2.6-.9-3.6-3.1-3.6zm82.9 10h-11.7c-1 0-2 .4-2 2.8s1.1 2.8 2 2.8h11.7v-5.6zm-51.4 0h-11.7c-1 0-2 .4-2 2.8s1.1 2.8 2 2.8H134v-5.6z" fill-rule="evenodd" clip-rule="evenodd" fill="#fff"/></svg>