<svg xmlns="http://www.w3.org/2000/svg" version="1.1" xmlns:xlink="http://www.w3.org/1999/xlink" xmlns:svgjs="http://svgjs.dev/svgjs" width="2000" height="1247" viewBox="0 0 2000 1247"><g transform="matrix(1,0,0,1,-1.2121212121212466,0.504858299595071)"><svg viewBox="0 0 396 247" data-background-color="#282634" preserveAspectRatio="xMidYMid meet" height="1247" width="2000" xmlns="http://www.w3.org/2000/svg" xmlns:xlink="http://www.w3.org/1999/xlink"><g id="tight-bounds" transform="matrix(1,0,0,1,0.2400000000000091,-0.09999999999999432)"><svg viewBox="0 0 395.52 247.2" height="247.2" width="395.52"><g><svg></svg></g><g><svg viewBox="0 0 395.52 247.2" height="247.2" width="395.52"><g mask="url(&quot;#7caaae88-a534-49ab-8566-6f7fbee38bd2&quot;)"><g><path xmlns="http://www.w3.org/2000/svg" d="M206.418 41.983c7.234 0 13.622 1.262 19.163 3.786 5.541 2.555 11.159 6.526 16.855 11.914v0l-7.388 7.85c-4.926-4.31-9.543-7.388-13.853-9.236-4.31-1.847-9.235-2.771-14.777-2.77v0c-11.852 0-21.703 5.387-29.553 16.162-7.85 10.775-11.775 28.553-11.775 53.334v0c0 25.089 3.463 43.129 10.39 54.119 6.927 11.021 16.931 16.531 30.015 16.531v0c5.079 0 9.697-0.662 13.853-1.985 4.156-1.293 8.235-3.325 12.236-6.096v0-56.797h-24.473l-1.386-11.313h38.789v74.806c-12.006 8.62-24.935 12.929-38.789 12.929v0c-17.393 0-30.861-6.696-40.404-20.087-9.543-13.391-14.315-34.094-14.315-62.107v0c0-18.317 2.54-33.555 7.619-45.715 5.079-12.16 11.821-21.087 20.226-26.783 8.373-5.695 17.563-8.543 27.567-8.542z" fill="#ff4057" fill-rule="nonzero" stroke="none" stroke-width="1" stroke-linecap="butt" stroke-linejoin="miter" stroke-miterlimit="10" stroke-dasharray="" stroke-dashoffset="0" font-family="none" font-weight="none" font-size="none" text-anchor="none" style="mix-blend-mode: normal" data-fill-palette-color="tertiary"></path></g></g><g transform="matrix(1,0,0,1,150.80356225339568,37.08)"><svg viewBox="0 0 93.91287549320862 173.04" height="173.04" width="93.91287549320862"><g><svg viewBox="0 0 107.61481965799256 198.28663850214738" height="173.04" width="93.91287549320862"><g><svg viewBox="0 0 107.61481965799256 198.28663850214738" height="198.28663850214738" width="107.61481965799256"><g id="textblocktransform"><svg viewBox="0 0 107.61481965799256 198.28663850214738" height="198.28663850214738" width="107.61481965799256" id="textblock"><g><svg viewBox="0 0 107.61481965799256 171.9706128" height="171.9706128" width="107.61481965799256"><g transform="matrix(1,0,0,1,0,0)"><svg width="107.61481965799256" viewBox="-0.34999990463256836 -37.79999923706055 26.25 41.349998474121094" height="171.9706128" data-palette-color="#ff4057"><path d="M14.65-34.8Q17-34.8 18.8-33.98 20.6-33.15 22.45-31.4L22.45-31.4 20.85-29.7Q19.25-31.1 17.85-31.7 16.45-32.3 14.65-32.3L14.65-32.3Q10.8-32.3 8.25-28.8 5.7-25.3 5.7-17.25L5.7-17.25Q5.7-9.1 7.95-5.53 10.2-1.95 14.45-1.95L14.45-1.95Q16.1-1.95 17.45-2.38 18.8-2.8 20.1-3.7L20.1-3.7 20.1-16 14.8-16 14.5-18.45 22.9-18.45 22.9-2.25Q19 0.55 14.5 0.55L14.5 0.55Q8.85 0.55 5.75-3.8 2.65-8.15 2.65-17.25L2.65-17.25Q2.65-23.2 4.3-27.15 5.95-31.1 8.68-32.95 11.4-34.8 14.65-34.8L14.65-34.8Z" opacity="1" transform="matrix(1,0,0,1,0,0)" fill="#ff4057" class="undefined-text-0" data-fill-palette-color="primary" id="text-0"></path></svg></g></svg></g><g transform="matrix(1,0,0,1,0,193.95563172128206)"><svg viewBox="0 0 60.09066062120742 4.331006780865319" height="4.331006780865319" width="60.09066062120742"><g transform="matrix(1,0,0,1,0,0)"><svg width="60.09066062120742" viewBox="-2.300000011920929 -31.700000762939453 548.2999877929688 40.45000076293945" height="4.331006780865319" data-palette-color="#dcdcdc"><path d="M39.25-17.3L39.25-17.3Q39.25-21.2 38.05-25L38.05-25 51.45-25Q51.5-24.25 51.5-22.8L51.5-22.8Q51.5-16.4 49.8-12.2L49.8-12.2Q45.35-10.9 42.4-8.75 39.45-6.6 39.45-4.33 39.45-2.05 41.5 0L41.5 0 28.9 0Q25.8-4.6 23.65-10.65L23.65-10.65Q22-6.9 22-4.33 22-1.75 23.45 0L23.45 0 10.9 0Q7.05-5.1 4.35-11.8 1.65-18.5 0.7-25L0.7-25 14-25Q14.85-14.25 18.4-7.15L18.4-7.15Q20.95-11.5 20.95-17.7L20.95-17.7Q20.95-21.05 20.1-25L20.1-25 32-25Q32.8-15.1 36.7-7.15L36.7-7.15Q39.25-11.85 39.25-17.3ZM72.75-14.95L72.75-14.95 77.45-14.65Q78.15-14.65 78.5-14.7L78.5-14.7 76.15-10.3 75.7-10.3Q74.75-10.3 73-10.83 71.25-11.35 70.5-11.35L70.5-11.35Q68.45-11.35 67.25-8.7L67.25-8.7Q67.05-6.25 66.95-3.8L66.95-3.8Q69.55-3.3 71.05-3.3L71.05-3.3 71.5-3.3Q73.65-3.3 74.92-4.25 76.2-5.2 76.75-7.65L76.75-7.65 82.75-7.4Q82-3.1 80.75 0L80.75 0 56.2 0Q55.2-6.75 55.2-13.4 55.2-20.05 55.9-25L55.9-25 82.7-25Q81.8-19.6 81.1-17.4L81.1-17.4Q78.15-17.25 75.7-17.2L75.7-17.2Q76.1-18.35 76.1-19.35L76.1-19.35Q76.1-21.75 72.5-21.75L72.5-21.75Q71.15-21.75 69.5-21.45L69.5-21.45Q68.4-16.7 67.8-13.1L67.8-13.1Q69.8-14.95 72.75-14.95ZM90.45-17.65L87.1-17.65Q87.45-21.85 87.45-22.75 87.45-23.65 87.05-28.7L87.05-28.7 90.4-28.7Q90.15-26.3 90.15-23.33 90.15-20.35 90.45-17.65L90.45-17.65ZM123.04-16.3L123.04-16.3 122.99-14.6Q118.99-12.45 112.99-11.25L112.99-11.25Q117.29-10.1 121.29-10.1L121.29-10.1 122.34-10.1Q125.09-6.05 125.89 0L125.89 0 112.94 0Q112.44-3.5 110.92-6.03 109.39-8.55 107.19-9.45L107.19-9.45Q107.14-8.6 107.14-6.05 107.14-3.5 107.44 0L107.44 0 96.54 0Q95.09-7.25 95.09-13.48 95.09-19.7 95.79-25L95.79-25 121.89-25Q123.04-19.95 123.04-16.3ZM108.24-21.65L108.24-21.65Q107.64-17.25 107.34-13L107.34-13Q110.09-13.4 111.84-14.95L111.84-14.95Q110.89-18.3 108.24-21.65ZM147.99-14.95L147.99-14.95 152.69-14.65Q153.39-14.65 153.74-14.7L153.74-14.7 151.39-10.3 150.94-10.3Q149.99-10.3 148.24-10.83 146.49-11.35 145.74-11.35L145.74-11.35Q143.69-11.35 142.49-8.7L142.49-8.7Q142.29-6.25 142.19-3.8L142.19-3.8Q144.79-3.3 146.29-3.3L146.29-3.3 146.74-3.3Q148.89-3.3 150.17-4.25 151.44-5.2 151.99-7.65L151.99-7.65 157.99-7.4Q157.24-3.1 155.99 0L155.99 0 131.44 0Q130.44-6.75 130.44-13.4 130.44-20.05 131.14-25L131.14-25 157.94-25Q157.04-19.6 156.34-17.4L156.34-17.4Q153.39-17.25 150.94-17.2L150.94-17.2Q151.34-18.35 151.34-19.35L151.34-19.35Q151.34-21.75 147.74-21.75L147.74-21.75Q146.39-21.75 144.74-21.45L144.74-21.45Q143.64-16.7 143.04-13.1L143.04-13.1Q145.04-14.95 147.99-14.95ZM187.89 2.25L187.89 2.25Q188.24-1.65 188.24-8.53 188.24-15.4 187.09-25L187.09-25 200.59-25Q200.69-23.1 200.69-19.15L200.69-19.15Q200.69-8.55 199.29 0L199.29 0Q197.34 1.85 195.69 2.73 194.04 3.6 193.44 3.93 192.84 4.25 191.29 4.93 189.74 5.6 189.44 5.75L189.44 5.75Q183.04 5.25 178.54 3.5L178.54 3.5Q178.64 0.2 178.84-2.6L178.84-2.6Q183.49 0.75 187.89 2.25ZM231.33-25L237.73-25Q237.93-21.75 237.93-15.53 237.93-9.3 237.13-2.25L237.13-2.25Q231.93 1.1 224.68 1.1L224.68 1.1Q215.03 1.1 209.08-2.25L209.08-2.25Q208.43-7.65 208.43-12.73 208.43-17.8 209.18-25L209.18-25 222.63-25Q220.63-14.15 220.53-4.15L220.53-4.15Q222.63-2.25 226.58-2.25 230.53-2.25 232.63-3.65L232.63-3.65Q232.73-5.3 232.73-8.4L232.73-8.4Q232.73-16.3 231.33-25L231.33-25ZM261.03-22L261.03-22Q259.03-22.3 256.76-22.3 254.48-22.3 252.33-22L252.33-22Q253.68-19.7 255.53-18.25 257.38-16.8 260.21-15.38 263.03-13.95 264.81-12.75 266.58-11.55 268.73-8.8 270.88-6.05 271.43-3.05L271.43-3.05Q269.03 0.05 265.08 2.43 261.13 4.8 256.98 5.6L256.98 5.6Q254.18 5.35 249.91 4.03 245.63 2.7 243.48 2.7 241.33 2.7 239.18 4.05L239.18 4.05Q240.08 1.5 242.13-2.35L242.13-2.35 242.53-2.35Q245.73-2.35 248.56-1.35 251.38-0.35 253.71 0.65 256.03 1.65 257.46 1.65 258.88 1.65 259.53 1.45L259.53 1.45Q259.53-1.85 257.48-4L257.48-4Q256.38-5.15 255.61-5.78 254.83-6.4 253.23-7.5L253.23-7.5 252.38-8.1Q248.98-10.45 246.78-12.88 244.58-15.3 243.58-18.85L243.58-18.85Q245.18-22.4 246.73-25L246.73-25Q251.48-26.15 256.58-26.15L256.58-26.15 258.78-26.15Q263.08-26.15 268.63-24.95L268.63-24.95Q267.83-21.65 266.68-19L266.68-19Q262.48-18.7 260.18-18.7L260.18-18.7Q260.63-19.85 261.03-22ZM295.23-21.75L295.23-21.75Q293.93-13.85 293.93-8.85 293.93-3.85 294.33 0L294.33 0 283.43 0Q281.73-7.95 281.73-17.1L281.73-17.1Q281.73-18.65 281.83-21.75L281.83-21.75Q277.58-20.5 276.63-16L276.63-16 271.68-16.3 273.48-25 306.73-25Q305.73-19.5 304.43-16L304.43-16 299.38-16.3Q299.58-17.1 299.58-17.9L299.58-17.9Q299.58-19.85 298.38-20.8 297.18-21.75 295.23-21.75ZM358.87-0.4L358.87-0.4 358.87 0 347.27 0Q347.07-2.75 346.42-5.9L346.42-5.9Q342.92-2.4 339.42 0L339.42 0 327.77 0Q327.42-2.05 327.42-5.43 327.42-8.8 328.42-12.2L328.42-12.2Q332.02-13.25 335.35-15.75 338.67-18.25 340.17-21.15L340.17-21.15Q338.77-23.35 337.32-25L337.32-25 353.92-25Q358.87-14.15 358.87-0.4ZM345.52-9.55L345.52-9.55Q344.27-13.85 342.12-17.95L342.12-17.95Q339.77-11.05 339.42-4.9L339.42-4.9Q343.12-6.9 345.52-9.55ZM373.47-3.85Q375.82-3.3 377.97-3.3 380.12-3.3 381.4-4.28 382.67-5.25 383.27-7.65L383.27-7.65 389.27-7.45Q388.52-2.95 387.27 0L387.27 0 362.72 0Q361.77-6.4 361.77-13.25 361.77-20.1 362.47-25L362.47-25 376.87-25Q373.57-12.35 373.47-3.85L373.47-3.85ZM393.42-25L406.92-25 406.92-23.65Q406.92-10.45 405.27 0L405.27 0 393.27 0Q394.22-4.6 394.22-10.63 394.22-16.65 393.42-25L393.42-25ZM430.42-14.95L430.42-14.95 435.12-14.65Q435.82-14.65 436.17-14.7L436.17-14.7 433.82-10.3 433.37-10.3Q432.42-10.3 430.67-10.83 428.92-11.35 428.17-11.35L428.17-11.35Q426.12-11.35 424.92-8.7L424.92-8.7Q424.72-6.25 424.62-3.8L424.62-3.8Q427.22-3.3 428.72-3.3L428.72-3.3 429.17-3.3Q431.32-3.3 432.59-4.25 433.87-5.2 434.42-7.65L434.42-7.65 440.42-7.4Q439.67-3.1 438.42 0L438.42 0 413.87 0Q412.87-6.75 412.87-13.4 412.87-20.05 413.57-25L413.57-25 440.37-25Q439.47-19.6 438.77-17.4L438.77-17.4Q435.82-17.25 433.37-17.2L433.37-17.2Q433.77-18.35 433.77-19.35L433.77-19.35Q433.77-21.75 430.17-21.75L430.17-21.75Q428.82-21.75 427.17-21.45L427.17-21.45Q426.07-16.7 425.47-13.1L425.47-13.1Q427.47-14.95 430.42-14.95ZM469.56-25L475.51-25Q475.81-19.75 475.81-13.93 475.81-8.1 475.31 0L475.31 0 470.51 0Q460.81-5.2 452.71-14.15L452.71-14.15Q453.11-10.8 453.11-7.28 453.11-3.75 452.86 0L452.86 0 447.01 0Q448.01-6.15 448.01-11.38 448.01-16.6 447.51-19.65L447.51-19.65Q445.51-22.65 444.36-25L444.36-25 458.56-25Q460.66-21.4 464.29-17.57 467.91-13.75 471.21-11.6L471.21-11.6Q471.21-18.9 469.56-25L469.56-25ZM500.11-22L500.11-22Q498.11-22.3 495.84-22.3 493.56-22.3 491.41-22L491.41-22Q492.76-19.7 494.61-18.25 496.46-16.8 499.29-15.38 502.11-13.95 503.89-12.75 505.66-11.55 507.81-8.8 509.96-6.05 510.51-3.05L510.51-3.05Q508.11 0.05 504.16 2.43 500.21 4.8 496.06 5.6L496.06 5.6Q493.26 5.35 488.99 4.03 484.71 2.7 482.56 2.7 480.41 2.7 478.26 4.05L478.26 4.05Q479.16 1.5 481.21-2.35L481.21-2.35 481.61-2.35Q484.81-2.35 487.64-1.35 490.46-0.35 492.79 0.65 495.11 1.65 496.54 1.65 497.96 1.65 498.61 1.45L498.61 1.45Q498.61-1.85 496.56-4L496.56-4Q495.46-5.15 494.69-5.78 493.91-6.4 492.31-7.5L492.31-7.5 491.46-8.1Q488.06-10.45 485.86-12.88 483.66-15.3 482.66-18.85L482.66-18.85Q484.26-22.4 485.81-25L485.81-25Q490.56-26.15 495.66-26.15L495.66-26.15 497.86-26.15Q502.16-26.15 507.71-24.95L507.71-24.95Q506.91-21.65 505.76-19L505.76-19Q501.56-18.7 499.26-18.7L499.26-18.7Q499.71-19.85 500.11-22ZM519.36 0.25L519.36 0.25Q518.81 0.3 516.18 0.3 513.56 0.3 511.61 0L511.61 0Q512.61-2.3 512.71-5.1L512.71-5.1Q515.56-4.6 521.11-4.6L521.11-4.6Q520.41-1.8 519.36 0.25ZM530.31 0.25L530.31 0.25Q529.76 0.3 527.13 0.3 524.51 0.3 522.56 0L522.56 0Q523.56-2.3 523.66-5.1L523.66-5.1Q526.51-4.6 532.06-4.6L532.06-4.6Q531.36-1.8 530.31 0.25ZM541.25 0.25L541.25 0.25Q540.7 0.3 538.08 0.3 535.45 0.3 533.5 0L533.5 0Q534.5-2.3 534.6-5.1L534.6-5.1Q537.45-4.6 543-4.6L543-4.6Q542.3-1.8 541.25 0.25Z" opacity="1" transform="matrix(1,0,0,1,0,0)" fill="#dcdcdc" class="undefined-text-1" data-fill-palette-color="secondary" id="text-1"></path></svg></g></svg></g></svg></g></svg></g></svg></g></svg></g></svg></g><defs><mask id="7caaae88-a534-49ab-8566-6f7fbee38bd2"><rect width="395.52" height="247.2" fill="white"></rect><g transform="matrix(1,0,0,1,150.80356225339568,37.08)" id="clone"><svg viewBox="0 0 93.91287549320862 173.04" height="173.04" width="93.91287549320862"><g><svg viewBox="0 0 107.61481965799256 198.28663850214738" height="173.04" width="93.91287549320862"><g><svg viewBox="0 0 107.61481965799256 198.28663850214738" height="198.28663850214738" width="107.61481965799256"><g id="SvgjsG1011"><svg viewBox="0 0 107.61481965799256 198.28663850214738" height="198.28663850214738" width="107.61481965799256" id="SvgjsSvg1010"><g><svg viewBox="0 0 107.61481965799256 171.9706128" height="171.9706128" width="107.61481965799256"><g transform="matrix(1,0,0,1,0,0)"><svg width="107.61481965799256" viewBox="-0.34999990463256836 -37.79999923706055 26.25 41.349998474121094" height="171.9706128" data-palette-color="#ff4057"><path d="M14.65-34.8Q17-34.8 18.8-33.98 20.6-33.15 22.45-31.4L22.45-31.4 20.85-29.7Q19.25-31.1 17.85-31.7 16.45-32.3 14.65-32.3L14.65-32.3Q10.8-32.3 8.25-28.8 5.7-25.3 5.7-17.25L5.7-17.25Q5.7-9.1 7.95-5.53 10.2-1.95 14.45-1.95L14.45-1.95Q16.1-1.95 17.45-2.38 18.8-2.8 20.1-3.7L20.1-3.7 20.1-16 14.8-16 14.5-18.45 22.9-18.45 22.9-2.25Q19 0.55 14.5 0.55L14.5 0.55Q8.85 0.55 5.75-3.8 2.65-8.15 2.65-17.25L2.65-17.25Q2.65-23.2 4.3-27.15 5.95-31.1 8.68-32.95 11.4-34.8 14.65-34.8L14.65-34.8Z" opacity="1" transform="matrix(1,0,0,1,0,0)" fill="#ff4057" class="undefined-text-0" data-fill-palette-color="primary" id="SvgjsPath1009" stroke-width="5" stroke="black" stroke-linejoin="round"></path></svg></g></svg></g><g transform="matrix(1,0,0,1,0,193.95563172128206)"><svg viewBox="0 0 60.09066062120742 4.331006780865319" height="4.331006780865319" width="60.09066062120742"><g transform="matrix(1,0,0,1,0,0)"><svg width="60.09066062120742" viewBox="-2.300000011920929 -31.700000762939453 548.2999877929688 40.45000076293945" height="4.331006780865319" data-palette-color="#dcdcdc"><path d="M39.25-17.3L39.25-17.3Q39.25-21.2 38.05-25L38.05-25 51.45-25Q51.5-24.25 51.5-22.8L51.5-22.8Q51.5-16.4 49.8-12.2L49.8-12.2Q45.35-10.9 42.4-8.75 39.45-6.6 39.45-4.33 39.45-2.05 41.5 0L41.5 0 28.9 0Q25.8-4.6 23.65-10.65L23.65-10.65Q22-6.9 22-4.33 22-1.75 23.45 0L23.45 0 10.9 0Q7.05-5.1 4.35-11.8 1.65-18.5 0.7-25L0.7-25 14-25Q14.85-14.25 18.4-7.15L18.4-7.15Q20.95-11.5 20.95-17.7L20.95-17.7Q20.95-21.05 20.1-25L20.1-25 32-25Q32.8-15.1 36.7-7.15L36.7-7.15Q39.25-11.85 39.25-17.3ZM72.75-14.95L72.75-14.95 77.45-14.65Q78.15-14.65 78.5-14.7L78.5-14.7 76.15-10.3 75.7-10.3Q74.75-10.3 73-10.83 71.25-11.35 70.5-11.35L70.5-11.35Q68.45-11.35 67.25-8.7L67.25-8.7Q67.05-6.25 66.95-3.8L66.95-3.8Q69.55-3.3 71.05-3.3L71.05-3.3 71.5-3.3Q73.65-3.3 74.92-4.25 76.2-5.2 76.75-7.65L76.75-7.65 82.75-7.4Q82-3.1 80.75 0L80.75 0 56.2 0Q55.2-6.75 55.2-13.4 55.2-20.05 55.9-25L55.9-25 82.7-25Q81.8-19.6 81.1-17.4L81.1-17.4Q78.15-17.25 75.7-17.2L75.7-17.2Q76.1-18.35 76.1-19.35L76.1-19.35Q76.1-21.75 72.5-21.75L72.5-21.75Q71.15-21.75 69.5-21.45L69.5-21.45Q68.4-16.7 67.8-13.1L67.8-13.1Q69.8-14.95 72.75-14.95ZM90.45-17.65L87.1-17.65Q87.45-21.85 87.45-22.75 87.45-23.65 87.05-28.7L87.05-28.7 90.4-28.7Q90.15-26.3 90.15-23.33 90.15-20.35 90.45-17.65L90.45-17.65ZM123.04-16.3L123.04-16.3 122.99-14.6Q118.99-12.45 112.99-11.25L112.99-11.25Q117.29-10.1 121.29-10.1L121.29-10.1 122.34-10.1Q125.09-6.05 125.89 0L125.89 0 112.94 0Q112.44-3.5 110.92-6.03 109.39-8.55 107.19-9.45L107.19-9.45Q107.14-8.6 107.14-6.05 107.14-3.5 107.44 0L107.44 0 96.54 0Q95.09-7.25 95.09-13.48 95.09-19.7 95.79-25L95.79-25 121.89-25Q123.04-19.95 123.04-16.3ZM108.24-21.65L108.24-21.65Q107.64-17.25 107.34-13L107.34-13Q110.09-13.4 111.84-14.95L111.84-14.95Q110.89-18.3 108.24-21.65ZM147.99-14.95L147.99-14.95 152.69-14.65Q153.39-14.65 153.74-14.7L153.74-14.7 151.39-10.3 150.94-10.3Q149.99-10.3 148.24-10.83 146.49-11.35 145.74-11.35L145.74-11.35Q143.69-11.35 142.49-8.7L142.49-8.7Q142.29-6.25 142.19-3.8L142.19-3.8Q144.79-3.3 146.29-3.3L146.29-3.3 146.74-3.3Q148.89-3.3 150.17-4.25 151.44-5.2 151.99-7.65L151.99-7.65 157.99-7.4Q157.24-3.1 155.99 0L155.99 0 131.44 0Q130.44-6.75 130.44-13.4 130.44-20.05 131.14-25L131.14-25 157.94-25Q157.04-19.6 156.34-17.4L156.34-17.4Q153.39-17.25 150.94-17.2L150.94-17.2Q151.34-18.35 151.34-19.35L151.34-19.35Q151.34-21.75 147.74-21.75L147.74-21.75Q146.39-21.75 144.74-21.45L144.74-21.45Q143.64-16.7 143.04-13.1L143.04-13.1Q145.04-14.95 147.99-14.95ZM187.89 2.25L187.89 2.25Q188.24-1.65 188.24-8.53 188.24-15.4 187.09-25L187.09-25 200.59-25Q200.69-23.1 200.69-19.15L200.69-19.15Q200.69-8.55 199.29 0L199.29 0Q197.34 1.85 195.69 2.73 194.04 3.6 193.44 3.93 192.84 4.25 191.29 4.93 189.74 5.6 189.44 5.75L189.44 5.75Q183.04 5.25 178.54 3.5L178.54 3.5Q178.64 0.2 178.84-2.6L178.84-2.6Q183.49 0.75 187.89 2.25ZM231.33-25L237.73-25Q237.93-21.75 237.93-15.53 237.93-9.3 237.13-2.25L237.13-2.25Q231.93 1.1 224.68 1.1L224.68 1.1Q215.03 1.1 209.08-2.25L209.08-2.25Q208.43-7.65 208.43-12.73 208.43-17.8 209.18-25L209.18-25 222.63-25Q220.63-14.15 220.53-4.15L220.53-4.15Q222.63-2.25 226.58-2.25 230.53-2.25 232.63-3.65L232.63-3.65Q232.73-5.3 232.73-8.4L232.73-8.4Q232.73-16.3 231.33-25L231.33-25ZM261.03-22L261.03-22Q259.03-22.3 256.76-22.3 254.48-22.3 252.33-22L252.33-22Q253.68-19.7 255.53-18.25 257.38-16.8 260.21-15.38 263.03-13.95 264.81-12.75 266.58-11.55 268.73-8.8 270.88-6.05 271.43-3.05L271.43-3.05Q269.03 0.05 265.08 2.43 261.13 4.8 256.98 5.6L256.98 5.6Q254.18 5.35 249.91 4.03 245.63 2.7 243.48 2.7 241.33 2.7 239.18 4.05L239.18 4.05Q240.08 1.5 242.13-2.35L242.13-2.35 242.53-2.35Q245.73-2.35 248.56-1.35 251.38-0.35 253.71 0.65 256.03 1.65 257.46 1.65 258.88 1.65 259.53 1.45L259.53 1.45Q259.53-1.85 257.48-4L257.48-4Q256.38-5.15 255.61-5.78 254.83-6.4 253.23-7.5L253.23-7.5 252.38-8.1Q248.98-10.45 246.78-12.88 244.58-15.3 243.58-18.85L243.58-18.85Q245.18-22.4 246.73-25L246.73-25Q251.48-26.15 256.58-26.15L256.58-26.15 258.78-26.15Q263.08-26.15 268.63-24.95L268.63-24.95Q267.83-21.65 266.68-19L266.68-19Q262.48-18.7 260.18-18.7L260.18-18.7Q260.63-19.85 261.03-22ZM295.23-21.75L295.23-21.75Q293.93-13.85 293.93-8.85 293.93-3.85 294.33 0L294.33 0 283.43 0Q281.73-7.95 281.73-17.1L281.73-17.1Q281.73-18.65 281.83-21.75L281.83-21.75Q277.58-20.5 276.63-16L276.63-16 271.68-16.3 273.48-25 306.73-25Q305.73-19.5 304.43-16L304.43-16 299.38-16.3Q299.58-17.1 299.58-17.9L299.58-17.9Q299.58-19.85 298.38-20.8 297.18-21.75 295.23-21.75ZM358.87-0.4L358.87-0.4 358.87 0 347.27 0Q347.07-2.75 346.42-5.9L346.42-5.9Q342.92-2.4 339.42 0L339.42 0 327.77 0Q327.42-2.05 327.42-5.43 327.42-8.8 328.42-12.2L328.42-12.2Q332.02-13.25 335.35-15.75 338.67-18.25 340.17-21.15L340.17-21.15Q338.77-23.35 337.32-25L337.32-25 353.92-25Q358.87-14.15 358.87-0.4ZM345.52-9.55L345.52-9.55Q344.27-13.85 342.12-17.95L342.12-17.95Q339.77-11.05 339.42-4.9L339.42-4.9Q343.12-6.9 345.52-9.55ZM373.47-3.85Q375.82-3.3 377.97-3.3 380.12-3.3 381.4-4.28 382.67-5.25 383.27-7.65L383.27-7.65 389.27-7.45Q388.52-2.95 387.27 0L387.27 0 362.72 0Q361.77-6.4 361.77-13.25 361.77-20.1 362.47-25L362.47-25 376.87-25Q373.57-12.35 373.47-3.85L373.47-3.85ZM393.42-25L406.92-25 406.92-23.65Q406.92-10.45 405.27 0L405.27 0 393.27 0Q394.22-4.6 394.22-10.63 394.22-16.65 393.42-25L393.42-25ZM430.42-14.95L430.42-14.95 435.12-14.65Q435.82-14.65 436.17-14.7L436.17-14.7 433.82-10.3 433.37-10.3Q432.42-10.3 430.67-10.83 428.92-11.35 428.17-11.35L428.17-11.35Q426.12-11.35 424.92-8.7L424.92-8.7Q424.72-6.25 424.62-3.8L424.62-3.8Q427.22-3.3 428.72-3.3L428.72-3.3 429.17-3.3Q431.32-3.3 432.59-4.25 433.87-5.2 434.42-7.65L434.42-7.65 440.42-7.4Q439.67-3.1 438.42 0L438.42 0 413.87 0Q412.87-6.75 412.87-13.4 412.87-20.05 413.57-25L413.57-25 440.37-25Q439.47-19.6 438.77-17.4L438.77-17.4Q435.82-17.25 433.37-17.2L433.37-17.2Q433.77-18.35 433.77-19.35L433.77-19.35Q433.77-21.75 430.17-21.75L430.17-21.75Q428.82-21.75 427.17-21.45L427.17-21.45Q426.07-16.7 425.47-13.1L425.47-13.1Q427.47-14.95 430.42-14.95ZM469.56-25L475.51-25Q475.81-19.75 475.81-13.93 475.81-8.1 475.31 0L475.31 0 470.51 0Q460.81-5.2 452.71-14.15L452.71-14.15Q453.11-10.8 453.11-7.28 453.11-3.75 452.86 0L452.86 0 447.01 0Q448.01-6.15 448.01-11.38 448.01-16.6 447.51-19.65L447.51-19.65Q445.51-22.65 444.36-25L444.36-25 458.56-25Q460.66-21.4 464.29-17.57 467.91-13.75 471.21-11.6L471.21-11.6Q471.21-18.9 469.56-25L469.56-25ZM500.11-22L500.11-22Q498.11-22.3 495.84-22.3 493.56-22.3 491.41-22L491.41-22Q492.76-19.7 494.61-18.25 496.46-16.8 499.29-15.38 502.11-13.95 503.89-12.75 505.66-11.55 507.81-8.8 509.96-6.05 510.51-3.05L510.51-3.05Q508.11 0.05 504.16 2.43 500.21 4.8 496.06 5.6L496.06 5.6Q493.26 5.35 488.99 4.03 484.71 2.7 482.56 2.7 480.41 2.7 478.26 4.05L478.26 4.05Q479.16 1.5 481.21-2.35L481.21-2.35 481.61-2.35Q484.81-2.35 487.64-1.35 490.46-0.35 492.79 0.65 495.11 1.65 496.54 1.65 497.96 1.65 498.61 1.45L498.61 1.45Q498.61-1.85 496.56-4L496.56-4Q495.46-5.15 494.69-5.78 493.91-6.4 492.31-7.5L492.31-7.5 491.46-8.1Q488.06-10.45 485.86-12.88 483.66-15.3 482.66-18.85L482.66-18.85Q484.26-22.4 485.81-25L485.81-25Q490.56-26.15 495.66-26.15L495.66-26.15 497.86-26.15Q502.16-26.15 507.71-24.95L507.71-24.95Q506.91-21.65 505.76-19L505.76-19Q501.56-18.7 499.26-18.7L499.26-18.7Q499.71-19.85 500.11-22ZM519.36 0.25L519.36 0.25Q518.81 0.3 516.18 0.3 513.56 0.3 511.61 0L511.61 0Q512.61-2.3 512.71-5.1L512.71-5.1Q515.56-4.6 521.11-4.6L521.11-4.6Q520.41-1.8 519.36 0.25ZM530.31 0.25L530.31 0.25Q529.76 0.3 527.13 0.3 524.51 0.3 522.56 0L522.56 0Q523.56-2.3 523.66-5.1L523.66-5.1Q526.51-4.6 532.06-4.6L532.06-4.6Q531.36-1.8 530.31 0.25ZM541.25 0.25L541.25 0.25Q540.7 0.3 538.08 0.3 535.45 0.3 533.5 0L533.5 0Q534.5-2.3 534.6-5.1L534.6-5.1Q537.45-4.6 543-4.6L543-4.6Q542.3-1.8 541.25 0.25Z" opacity="1" transform="matrix(1,0,0,1,0,0)" fill="#dcdcdc" class="undefined-text-1" data-fill-palette-color="secondary" id="SvgjsPath1008" stroke-width="5" stroke="black" stroke-linejoin="round"></path></svg></g></svg></g></svg></g></svg></g></svg></g></svg></g></mask></defs></svg><rect width="395.52" height="247.2" fill="none" stroke="none" visibility="hidden"></rect></g></svg></g></svg>