<svg xmlns="http://www.w3.org/2000/svg" version="1.1" xmlns:xlink="http://www.w3.org/1999/xlink" xmlns:svgjs="http://svgjs.dev/svgjs" width="1000" height="860" viewBox="0 0 1000 860"><g transform="matrix(1,0,0,1,0.7207977970841171,0.3481793686256651)"><svg viewBox="0 0 287 247" data-background-color="#282634" preserveAspectRatio="xMidYMid meet" height="860" width="1000" xmlns="http://www.w3.org/2000/svg" xmlns:xlink="http://www.w3.org/1999/xlink"><g id="tight-bounds" transform="matrix(1,0,0,1,-0.20686896776314256,-0.10000035354713077)"><svg viewBox="0 0 287.4137379355263 247.2" height="247.2" width="287.4137379355263"><g><svg viewBox="0 0 395.52 340.1804823328685" height="247.2" width="287.4137379355263"><g transform="matrix(1,0,0,1,0,206.20975127532498)"><svg viewBox="0 0 395.52 133.97073105754353" height="133.97073105754353" width="395.52"><g id="textblocktransform"><svg viewBox="0 0 395.52 133.97073105754353" height="133.97073105754353" width="395.52" id="textblock"><g><svg viewBox="0 0 395.52 89.21788302834588" height="89.21788302834588" width="395.52"><g transform="matrix(1,0,0,1,0,0)"><svg width="395.52" viewBox="2.5 -34.400001525878906 209.0050048828125 47.150001525878906" height="89.21788302834588" data-palette-color="#ff4057"><path d="M33.8-16.7Q34.5-16.7 34.5-15.95L34.5-15.95Q34.5-15.2 33.8-15.2L33.8-15.2 31.45-15.25Q31.35-7.85 28.4-4 25.45-0.15 19.1-0.15L19.1-0.15Q13.95-0.15 10.2-2.53 6.45-4.9 4.48-8.83 2.5-12.75 2.5-17.3L2.5-17.3Q2.5-21.9 4.5-25.8 6.5-29.7 10.18-32.05 13.85-34.4 18.65-34.4L18.65-34.4Q25.45-34.4 30.2-29.3L30.2-29.3Q30.4-30.5 30.4-31.75L30.4-31.75Q30.4-32.35 30.55-32.55 30.7-32.75 31.1-32.75L31.1-32.75Q31.85-32.75 31.85-32.2L31.85-32.2Q31.85-29.25 31.4-28.15L31.4-28.15Q31.05-27.4 30.35-27.4L30.35-27.4Q30-27.4 29.78-27.53 29.55-27.65 29.15-28.05L29.15-28.05Q26.65-30.45 24.4-31.65 22.15-32.85 18.8-32.85L18.8-32.85Q14.35-32.85 11-30.65 7.65-28.45 5.85-24.83 4.05-21.2 4.05-17.05L4.05-17.05Q4.05-12.9 5.88-9.38 7.7-5.85 11.1-3.78 14.5-1.7 19.05-1.7L19.05-1.7Q24.75-1.7 27.28-5.13 29.8-8.55 29.9-15.25L29.9-15.25 21.55-15.4Q20.7-15.4 20.7-16.15L20.7-16.15Q20.7-16.95 21.55-16.95L21.55-16.95 33.8-16.7ZM42.2-29.75Q41.3-29.75 40.65-30.38 40-31 40-31.9L40-31.9Q40-32.85 40.65-33.52 41.3-34.2 42.3-34.2L42.3-34.2Q43.25-34.2 43.85-33.58 44.45-32.95 44.45-31.95L44.45-31.95Q44.45-30.95 43.77-30.35 43.1-29.75 42.2-29.75L42.2-29.75ZM41.4-0.3Q40.6-0.3 40.6-1.05L40.6-1.05 41.1-24.2Q41.1-25.2 41.9-25.2L41.9-25.2Q42.3-25.2 42.5-24.98 42.7-24.75 42.7-24.2L42.7-24.2 42.15-1.1Q42.15-0.3 41.4-0.3L41.4-0.3ZM63.05 0Q57.9 0 54.17-2.8 50.45-5.6 50.45-12.3L50.45-12.3Q50.45-16.25 51.9-19.28 53.35-22.3 56.12-24.03 58.9-25.75 62.85-25.75L62.85-25.75Q66.5-25.75 69.42-24.23 72.35-22.7 74.02-19.7 75.7-16.7 75.7-12.5L75.7-12.5Q75.7-6.25 72.17-3.13 68.65 0 63.05 0L63.05 0ZM63-1.55Q66-1.55 68.52-2.75 71.05-3.95 72.6-6.43 74.15-8.9 74.15-12.55L74.15-12.55Q74.15-16.1 72.7-18.73 71.25-21.35 68.67-22.78 66.1-24.2 62.9-24.2L62.9-24.2Q59.65-24.2 57.17-22.75 54.7-21.3 53.35-18.63 52-15.95 52-12.45L52-12.45Q52-8.45 53.65-6.03 55.3-3.6 57.77-2.58 60.25-1.55 63-1.55L63-1.55ZM91.09-0.5Q89.64-0.5 87.79-3.68 85.94-6.85 84.29-11.5L84.29-11.5Q82.99-15.15 82.09-18.75 81.19-22.35 81.19-23.85L81.19-23.85Q81.19-24.5 81.39-24.75 81.59-25 81.99-25L81.99-25Q82.34-25 82.47-24.8 82.59-24.6 82.69-24.1L82.69-24.1Q83.04-21.55 83.67-18.9 84.29-16.25 85.69-12.3L85.69-12.3Q87.19-8.05 88.77-5.05 90.34-2.05 91.04-2.05L91.04-2.05Q91.74-2.05 93.32-4.93 94.89-7.8 96.69-12.25L96.69-12.25Q98.34-16.35 99.04-19.1 99.74-21.85 99.99-24.3L99.99-24.3Q100.04-25.25 100.74-25.25L100.74-25.25Q101.49-25.25 101.49-24.05L101.49-24.05Q101.49-22.45 100.57-19 99.64-15.55 98.19-11.75L98.19-11.75Q96.39-6.95 94.47-3.73 92.54-0.5 91.09-0.5L91.09-0.5ZM130.39-1.7Q130.89-1.65 131.12-1.53 131.34-1.4 131.34-0.95L131.34-0.95Q131.34-0.15 130.59-0.15L130.59-0.15Q128.59-0.15 127.72-0.95 126.84-1.75 126.44-3.9L126.44-3.9Q125.29-1.9 123.17-0.78 121.04 0.35 117.99 0.35L117.99 0.35Q113.69 0.35 111.24-1.65 108.79-3.65 107.89-6.4 106.99-9.15 106.99-11.8L106.99-11.8Q106.99-14.9 108.19-17.82 109.39-20.75 111.92-22.65 114.44-24.55 118.19-24.55L118.19-24.55Q121.29-24.55 123.32-23.35 125.34-22.15 126.59-19.7L126.59-19.7 127.09-23.35Q127.19-23.85 127.32-24.05 127.44-24.25 127.84-24.25L127.84-24.25Q128.29-24.25 128.56-24.03 128.84-23.8 128.79-23.5L128.79-23.5Q128.34-21.2 128.09-17.95L128.09-17.95Q127.89-15.65 127.89-11.75L127.89-11.75 127.89-8.35Q127.89-5.5 128.04-4.2 128.19-2.9 128.72-2.35 129.24-1.8 130.39-1.7L130.39-1.7ZM117.74-1.25Q121.29-1.25 123.77-3.08 126.24-4.9 126.29-8.4L126.29-8.4Q126.34-10.95 126.34-14.25L126.34-14.25Q126.34-17.65 124.92-19.6 123.49-21.55 121.62-22.28 119.74-23 118.19-23L118.19-23Q114.79-23 112.62-21.13 110.44-19.25 109.49-16.65 108.54-14.05 108.54-11.8L108.54-11.8Q108.54-9.6 109.29-7.2 110.04-4.8 112.09-3.03 114.14-1.25 117.74-1.25L117.74-1.25ZM150.39-25.35Q154.39-25.35 156.36-22.5 158.34-19.65 158.34-13.55L158.34-13.55 158.34-1.1Q158.34-0.15 157.59-0.15L157.59-0.15Q156.79-0.15 156.79-1.05L156.79-1.05 156.79-13.6Q156.79-18.9 155.31-21.38 153.84-23.85 150.14-23.85L150.14-23.85Q146.94-23.85 145.01-21.73 143.09-19.6 142.19-14.2L142.19-14.2Q141.74-11.5 141.74-8.7L141.74-8.7 141.79-0.7Q141.79-0.1 141.04-0.1L141.04-0.1Q140.24-0.1 140.24-0.7L140.24-0.7Q140.14-6.45 140.04-9.45L140.04-9.45Q139.99-11.25 139.94-14.38 139.89-17.5 139.89-19.9L139.89-19.9Q139.89-20.9 139.69-21.45 139.49-22 139.04-22.8L139.04-22.8Q138.94-22.95 138.49-23.7L138.49-23.7Q138.34-23.95 138.34-24.2L138.34-24.2Q138.34-24.55 138.66-24.75 138.99-24.95 139.29-24.95L139.29-24.95Q139.64-24.95 139.99-24.4L139.99-24.4Q141.49-22.05 141.49-19.9L141.49-19.9 141.49-17.8Q142.19-21.05 144.41-23.2 146.64-25.35 150.39-25.35L150.39-25.35ZM177.39-25.35Q181.39-25.35 183.36-22.5 185.34-19.65 185.34-13.55L185.34-13.55 185.34-1.1Q185.34-0.15 184.59-0.15L184.59-0.15Q183.79-0.15 183.79-1.05L183.79-1.05 183.79-13.6Q183.79-18.9 182.31-21.38 180.84-23.85 177.14-23.85L177.14-23.85Q173.94-23.85 172.01-21.73 170.09-19.6 169.19-14.2L169.19-14.2Q168.74-11.5 168.74-8.7L168.74-8.7 168.78-0.7Q168.78-0.1 168.03-0.1L168.03-0.1Q167.24-0.1 167.24-0.7L167.24-0.7Q167.14-6.45 167.03-9.45L167.03-9.45Q166.99-11.25 166.94-14.38 166.89-17.5 166.89-19.9L166.89-19.9Q166.89-20.9 166.69-21.45 166.49-22 166.03-22.8L166.03-22.8Q165.94-22.95 165.49-23.7L165.49-23.7Q165.34-23.95 165.34-24.2L165.34-24.2Q165.34-24.55 165.66-24.75 165.99-24.95 166.28-24.95L166.28-24.95Q166.64-24.95 166.99-24.4L166.99-24.4Q168.49-22.05 168.49-19.9L168.49-19.9 168.49-17.8Q169.19-21.05 171.41-23.2 173.64-25.35 177.39-25.35L177.39-25.35ZM198.68 12.75Q198.28 12.75 198.01 12.53 197.73 12.3 197.73 12L197.73 12Q197.73 11.8 197.83 11.5L197.83 11.5Q200.78 5.3 203.08-1.65L203.08-1.65Q199.93-3.85 196.78-9.78 193.63-15.7 190.88-24.25L190.88-24.25Q190.78-24.55 190.83-24.7L190.83-24.7Q191.03-25.3 191.78-25.3L191.78-25.3Q192.08-25.3 192.21-25.13 192.33-24.95 192.48-24.55L192.48-24.55Q194.18-19.2 196.26-14.7 198.33-10.2 200.31-7.25 202.28-4.3 203.73-3.3L203.73-3.3Q205.68-8.85 206.73-12.73 207.78-16.6 209.33-23.3L209.33-23.3 209.63-24.65Q209.73-25.1 209.91-25.28 210.08-25.45 210.43-25.45L210.43-25.45Q211.33-25.45 211.48-24.75L211.48-24.75Q211.53-24.6 211.48-24.45 211.43-24.3 211.43-24.25L211.43-24.25Q209.63-16.65 208.63-12.98 207.63-9.3 205.83-4.25L205.83-4.25Q203.68 1.8 199.58 11.9L199.58 11.9Q199.38 12.4 199.18 12.58 198.98 12.75 198.68 12.75L198.68 12.75Z" opacity="1" transform="matrix(1,0,0,1,0,0)" fill="#ff4057" class="undefined-text-0" data-fill-palette-color="primary" id="text-0"></path></svg></g></svg></g><g transform="matrix(1,0,0,1,75.54432,110.28008398214567)"><svg viewBox="0 0 244.43135999999998 23.690647075397862" height="23.690647075397862" width="244.43135999999998"><g transform="matrix(1,0,0,1,0,0)"><svg width="244.43135999999998" viewBox="1.0499999523162842 -32.04999923706055 383.25 37.14999771118164" height="23.690647075397862" data-palette-color="#dcdcdc"><path d="M44.25-32.05L32.75 0 28.6 0 22.35-18.6 22-18.6 15.4 0 11.25 0 1.05-32.05 5.05-32.05 5.6-28.95 13.4-4.45 13.75-4.45 20.65-23.95 17.95-32.05 22.05-32.05 22.8-28.6 30.7-4.45 31-4.45 39.7-28.75 40.45-32.05 44.25-32.05ZM57.7-3L64.35-3.2 64.65-2.9 64.3 0 49.15 0 49.3-7.5 49.15-24.9 64.4-24.9 64.65-24.6 64.35-21.7 58.05-21.9 52.85-21.85 52.8-14.3 57.75-14.25 62.1-14.4 62.35-14.05 62.05-11.1 57.45-11.25 52.8-11.2 52.75-7.8 52.8-3.05 57.7-3ZM72.3-24.9L72.6-24.55 71.4-15.4 69.35-15.1 69-15.45 69.25-24.65 72.3-24.9ZM90.64-10.05Q93.69-5.4 97.39-0.9L97.39-0.9 97.34-0.4Q95.24 0.25 93.89 0.35L93.89 0.35 93.24-0.05Q89.44-5.8 87.49-9.1L87.49-9.1 82.79-9.05 82.79-7.8 82.89 0 79.19 0 79.34-7.5 79.19-24.9 87.69-24.95Q91.64-24.95 93.77-23.1 95.89-21.25 95.89-17.75L95.89-17.75Q95.89-15.2 94.52-13.2 93.14-11.2 90.64-10.05L90.64-10.05ZM82.89-21.9L82.84-12.15 87.54-12Q91.99-13.25 91.99-17.45L91.99-17.45Q91.99-19.65 90.69-20.75 89.39-21.85 86.74-21.95L86.74-21.95 82.89-21.9ZM112.54-3L119.19-3.2 119.49-2.9 119.14 0 103.99 0 104.14-7.5 103.99-24.9 119.24-24.9 119.49-24.6 119.19-21.7 112.89-21.9 107.69-21.85 107.64-14.3 112.59-14.25 116.94-14.4 117.19-14.05 116.89-11.1 112.29-11.25 107.64-11.2 107.59-7.8 107.64-3.05 112.54-3ZM140.34-32.05L140.14-10.6 140.24-5.9Q140.24-2.1 138.34 0.38 136.44 2.85 131.74 5.1L131.74 5.1 130.19 2.85 130.19 2.35Q133.64 0.5 135.09-1.3 136.54-3.1 136.54-5.85L136.54-5.85 136.54-10.2 136.34-28.8 130.19-28.75 129.79-29.1 130.04-32.05 140.34-32.05ZM168.78-24.9L168.63-12.25 168.63-8.65Q168.68-4.4 166.06-2.05 163.43 0.3 158.53 0.3L158.53 0.3Q153.68 0.3 151.13-2.02 148.58-4.35 148.68-8.65L148.68-8.65 148.73-12.45 148.68-24.9 152.43-24.9 152.23-9.25Q152.18-6.1 153.81-4.5 155.43-2.9 158.68-2.9L158.68-2.9Q161.88-2.9 163.53-4.5 165.18-6.1 165.13-9.25L165.13-9.25 164.98-24.9 168.78-24.9ZM184.28-25.15Q187.33-25.15 190.38-23.95L190.38-23.95 189.73-20.25 189.13-20.1Q187.73-21.2 186.48-21.73 185.23-22.25 183.88-22.25L183.88-22.25Q181.73-22.25 180.48-21.13 179.23-20 179.23-18.55L179.23-18.55Q179.23-17.1 180.46-16.2 181.68-15.3 184.23-14.2L184.23-14.2Q186.48-13.2 187.81-12.4 189.13-11.6 190.11-10.28 191.08-8.95 191.08-7.05L191.08-7.05Q191.08-5.1 190.03-3.43 188.98-1.75 186.96-0.73 184.93 0.3 182.13 0.3L182.13 0.3Q180.38 0.3 178.46-0.13 176.53-0.55 174.88-1.4L174.88-1.4 175.33-5.35 175.83-5.55Q177.23-4.15 179.11-3.38 180.98-2.6 182.58-2.6L182.58-2.6Q184.68-2.6 186.03-3.73 187.38-4.85 187.38-6.45L187.38-6.45Q187.38-7.95 186.16-8.85 184.93-9.75 182.33-10.95L182.33-10.95Q180.18-11.9 178.81-12.7 177.43-13.5 176.48-14.83 175.53-16.15 175.53-18.05L175.53-18.05Q175.53-20.05 176.61-21.65 177.68-23.25 179.66-24.2 181.63-25.15 184.28-25.15L184.28-25.15ZM212.93-24.9L213.13-24.6 212.88-21.45 208.23-21.8 205.73-21.8 205.58-7.8 205.73 0 201.98 0 202.13-7.5 202.03-21.8 199.53-21.8 194.78-21.45 194.48-21.8 194.78-24.9 212.93-24.9ZM240.07-32.05L250.77 0 246.67 0 245.92-3.2 244.12-8.7 236.92-8.85 230.42-8.7 228.47-3.4 227.67 0 223.67 0 235.42-32.05 240.07-32.05ZM237.27-12L243.02-12.1 237.82-27.9 237.47-27.9 231.67-12.1 237.27-12ZM269.57-3.15L269.77-2.8 269.52 0 256.27 0 256.42-7.5 256.27-24.9 260.02-24.9 259.87-7.8 259.97-3.15 269.57-3.15ZM278.97-24.9L278.82-7.8 278.92 0 275.22 0 275.37-7.5 275.22-24.9 278.97-24.9ZM296.72-3L303.37-3.2 303.67-2.9 303.31 0 288.17 0 288.31-7.5 288.17-24.9 303.42-24.9 303.67-24.6 303.37-21.7 297.06-21.9 291.87-21.85 291.81-14.3 296.77-14.25 301.12-14.4 301.37-14.05 301.06-11.1 296.47-11.25 291.81-11.2 291.77-7.8 291.81-3.05 296.72-3ZM330.71-25L330.56-7.45 330.61 0 326.61 0 313.51-19 313.26-19 313.21-8.3 313.31 0 309.91 0 310.06-7.35 309.96-24.9 313.91-24.9 327.01-5.9 327.36-5.9 327.26-24.75 330.71-25ZM347.06-25.15Q350.11-25.15 353.16-23.95L353.16-23.95 352.51-20.25 351.91-20.1Q350.51-21.2 349.26-21.73 348.01-22.25 346.66-22.25L346.66-22.25Q344.51-22.25 343.26-21.13 342.01-20 342.01-18.55L342.01-18.55Q342.01-17.1 343.24-16.2 344.46-15.3 347.01-14.2L347.01-14.2Q349.26-13.2 350.59-12.4 351.91-11.6 352.89-10.28 353.86-8.95 353.86-7.05L353.86-7.05Q353.86-5.1 352.81-3.43 351.76-1.75 349.74-0.73 347.71 0.3 344.91 0.3L344.91 0.3Q343.16 0.3 341.24-0.13 339.31-0.55 337.66-1.4L337.66-1.4 338.11-5.35 338.61-5.55Q340.01-4.15 341.89-3.38 343.76-2.6 345.36-2.6L345.36-2.6Q347.46-2.6 348.81-3.73 350.16-4.85 350.16-6.45L350.16-6.45Q350.16-7.95 348.94-8.85 347.71-9.75 345.11-10.95L345.11-10.95Q342.96-11.9 341.59-12.7 340.21-13.5 339.26-14.83 338.31-16.15 338.31-18.05L338.31-18.05Q338.31-20.05 339.39-21.65 340.46-23.25 342.44-24.2 344.41-25.15 347.06-25.15L347.06-25.15ZM359.21-4.4Q360.21-4.4 360.81-3.8 361.41-3.2 361.41-2.15L361.41-2.15Q361.41-1.05 360.78-0.4 360.16 0.25 359.06 0.25L359.06 0.25Q358.01 0.25 357.43-0.35 356.86-0.95 356.86-2.05L356.86-2.05Q356.86-3.1 357.48-3.75 358.11-4.4 359.21-4.4L359.21-4.4ZM370.66-4.4Q371.66-4.4 372.25-3.8 372.86-3.2 372.86-2.15L372.86-2.15Q372.86-1.05 372.23-0.4 371.61 0.25 370.5 0.25L370.5 0.25Q369.46 0.25 368.88-0.35 368.31-0.95 368.31-2.05L368.31-2.05Q368.31-3.1 368.93-3.75 369.56-4.4 370.66-4.4L370.66-4.4ZM382.1-4.4Q383.1-4.4 383.7-3.8 384.3-3.2 384.3-2.15L384.3-2.15Q384.3-1.05 383.68-0.4 383.05 0.25 381.95 0.25L381.95 0.25Q380.9 0.25 380.33-0.35 379.75-0.95 379.75-2.05L379.75-2.05Q379.75-3.1 380.38-3.75 381-4.4 382.1-4.4L382.1-4.4Z" opacity="1" transform="matrix(1,0,0,1,0,0)" fill="#dcdcdc" class="undefined-text-1" data-fill-palette-color="secondary" id="text-1"></path></svg></g></svg></g></svg></g></svg></g><g transform="matrix(1,0,0,1,112.71639590332452,0)"><svg viewBox="0 0 170.08720819335093 185.1475503215252" height="185.1475503215252" width="170.08720819335093"><g><svg xmlns="http://www.w3.org/2000/svg" xmlns:xlink="http://www.w3.org/1999/xlink" version="1.1" x="0" y="0" viewBox="5.999512672424316 1 88.74232482910156 96.5999984741211" enable-background="new 0 0 100 100" xml:space="preserve" height="185.1475503215252" width="170.08720819335093" class="icon-icon-0" data-fill-palette-color="accent" id="icon-0"><path d="M85.873 38.396C83.612 17.955 75.479 1 51.266 1c-22.438 0-33.062 17.143-36.04 38.131C1.523 10.767 6.68 33.056 8.319 49.207c0.436 4.291 3.146 7.887 7.228 8.614C19.153 69.923 30.752 97.6 51.266 97.6c22.842 0 31.951-29.161 34.532-39.906 3.744-0.959 6.211-4.41 6.624-8.486C94.047 33.199 99.124 11.172 85.873 38.396zM32.942 47.312c0 0-8.766 0.013-8.766-5.082 0-4.917 8.318-5.31 9.048-5.31 5.81 0 11.265 1.421 11.265 5.31C44.489 46.558 38.75 47.312 32.942 47.312zM63.766 47.312c0 0-8.765 0.013-8.765-5.082 0-4.917 8.318-5.31 9.048-5.31 5.811 0 11.266 1.421 11.266 5.31C75.314 46.558 69.574 47.312 63.766 47.312z" fill="#dcdcdc" data-fill-palette-color="accent"></path><path d="M15.897 40.531c-14.54-30.479-9.244-7.733-7.578 8.676 0.448 4.414 3.3 8.102 7.578 8.679V40.531z" fill="#dcdcdc" data-fill-palette-color="accent"></path><path d="M15.417 48.719c-7.432-15.576-4.725-3.953-3.873 4.435 0.229 2.256 1.687 4.139 3.873 4.434V48.719z" fill="#dcdcdc" data-fill-palette-color="accent"></path><path fill="#dcdcdc" d="M15.417 48.719c-7.432-15.576-4.725-3.953-3.873 4.435 0.229 2.256 1.687 4.139 3.873 4.434V48.719z" data-fill-palette-color="accent"></path><path d="M84.844 40.531c14.541-30.479 9.244-7.733 7.578 8.676-0.447 4.414-3.299 8.102-7.578 8.679V40.531z" fill="#dcdcdc" data-fill-palette-color="accent"></path><path d="M85.326 48.719c7.431-15.576 4.724-3.953 3.872 4.435-0.229 2.256-1.686 4.139-3.872 4.434V48.719z" fill="#dcdcdc" data-fill-palette-color="accent"></path><path fill="#dcdcdc" d="M85.326 48.719c7.431-15.576 4.724-3.953 3.872 4.435-0.229 2.256-1.686 4.139-3.872 4.434V48.719z" data-fill-palette-color="accent"></path><path d="M26.224 11.12" fill="#dcdcdc" data-fill-palette-color="accent"></path><path d="M84.362 19.399" fill="#dcdcdc" data-fill-palette-color="accent"></path></svg></g></svg></g><g></g></svg></g><defs></defs></svg><rect width="287.4137379355263" height="247.2" fill="none" stroke="none" visibility="hidden"></rect></g></svg></g></svg>